<svg xmlns="http://www.w3.org/2000/svg" xmlns:xlink="http://www.w3.org/1999/xlink" version="1.1" x="0px" y="0px" viewBox="0 0 100 125" enable-background="new 0 0 100 100" xml:space="preserve"><path d="M63.944,17.154h-6.301v-3.491c0-1.777-1.441-3.218-3.218-3.218h-8.849c-1.777,0-3.218,1.441-3.218,3.218v3.491h-6.302  c-4.443,0-8.044,3.602-8.044,8.045V81.51c0,4.443,3.602,8.045,8.044,8.045h27.887c4.443,0,8.044-3.602,8.044-8.045V25.199  C71.988,20.756,68.387,17.154,63.944,17.154z M60.891,51.857c-4.385,7.598-8.775,15.194-13.163,22.791  c-0.017,0.029-0.036,0.057-0.052,0.086c-0.298,0.559-0.649,1.094-1.392,0.824c-0.776-0.282-0.594-0.966-0.491-1.549  c0.34-1.911,0.709-3.817,1.069-5.724c0.633-3.354,1.27-6.708,1.901-10.062c0.055-0.29,0.07-0.587,0.118-1.008  c-2.714,0-5.291,0.035-7.865-0.023c-0.681-0.016-1.355-0.318-2.032-0.489c0.195-0.644,0.277-1.354,0.603-1.923  c4.233-7.377,8.5-14.734,12.759-22.096c0.101-0.174,0.157-0.42,0.307-0.51c0.39-0.231,0.821-0.394,1.236-0.584  c0.177,0.39,0.546,0.806,0.497,1.165c-0.23,1.689-0.566,3.365-0.882,5.042c-0.699,3.716-1.409,7.43-2.11,11.146  c-0.055,0.291-0.074,0.589-0.126,1.01c0.418,0.02,0.769,0.052,1.12,0.051c2.48-0.008,4.961-0.028,7.441-0.033  C61.288,49.969,61.631,50.576,60.891,51.857z"/><text x="0" y="115" fill="#000000" font-size="5px" font-weight="bold" font-family="'Helvetica Neue', Helvetica, Arial-Unicode, Arial, Sans-serif">Created by Gregor Cresnar</text><text x="0" y="120" fill="#000000" font-size="5px" font-weight="bold" font-family="'Helvetica Neue', Helvetica, Arial-Unicode, Arial, Sans-serif">from the Noun Project</text></svg>