<svg xmlns="http://www.w3.org/2000/svg" xmlns:xlink="http://www.w3.org/1999/xlink" version="1.1" x="0px" y="0px" viewBox="0 0 64 80" style="enable-background:new 0 0 64 64;" xml:space="preserve"><path class="Graphic_x0020_Style_x0020_2" d="M32,58v-2c7.5,0,12.2-0.6,14-0.8v-4c-2,0.3-6.7,0.8-14,0.8v-2  c7.5,0,12.2-0.6,14-0.8v-4c-2,0.3-6.7,0.8-14,0.8v-2c7.5,0,12.2-0.6,14-0.8v-4.7c0-0.3-0.1-0.5-0.3-0.7L44,36v-4l1.7-1.7  c0.2-0.2,0.3-0.4,0.3-0.7v-9.1c0-0.3-0.2-0.6-0.4-0.8L37,14V9c0.6,0,1-0.4,1-1V1.7c0-0.4-0.3-0.8-0.7-1c-1-0.3-3-0.8-5.3-0.8  c-2.3,0-4.3,0.5-5.3,0.8c-0.4,0.1-0.7,0.5-0.7,1V8c0,0.6,0.4,1,1,1v5l-8.6,5.7c-0.3,0.2-0.4,0.5-0.4,0.8v9.1c0,0.3,0.1,0.5,0.3,0.7  L20,32v4l-1.7,1.7c-0.2,0.2-0.3,0.4-0.3,0.7v4.7c1,0.2,3,0.4,6,0.6v2c-2.9-0.2-4.8-0.4-6-0.6v4c1,0.2,3,0.4,6,0.6v2  c-2.9-0.2-4.8-0.4-6-0.6v4c1,0.2,3,0.4,6,0.6v2c-2.9-0.2-4.8-0.4-6-0.6v1.2c0,0.4,0.1,0.9,0.4,1.2l1.6,2.2c0.6,0.9,1.6,1.4,2.6,1.6  c2.1,0.3,6,0.8,9.3,0.8c3.3,0,7.2-0.5,9.3-0.8c1.1-0.1,2-0.7,2.6-1.6l1.6-2.1c0.3-0.3,0.4-0.8,0.4-1.2v-1.2C44,57.5,39.3,58,32,58z   M28,23c-3,0-6,2-6,2v-2.5c0-0.3,0.2-0.6,0.4-0.8l6.2-4.2c1.5-1,2.3-2.6,2.3-4.3V9h2v4.2c0,1.7,0.9,3.4,2.3,4.3l6.2,4.2  c0.3,0.2,0.4,0.5,0.4,0.8V23c0,0-3,2-6,2S31,23,28,23z"/><text x="0" y="79" fill="#000000" font-size="5px" font-weight="bold" font-family="'Helvetica Neue', Helvetica, Arial-Unicode, Arial, Sans-serif">Created by Denis Shumaylov</text><text x="0" y="84" fill="#000000" font-size="5px" font-weight="bold" font-family="'Helvetica Neue', Helvetica, Arial-Unicode, Arial, Sans-serif">from the Noun Project</text></svg>