<svg xmlns="http://www.w3.org/2000/svg" xmlns:xlink="http://www.w3.org/1999/xlink" xml:space="preserve" version="1.1" style="shape-rendering:geometricPrecision;text-rendering:geometricPrecision;image-rendering:optimizeQuality;" viewBox="0 0 249 311.25" x="0px" y="0px" fill-rule="evenodd" clip-rule="evenodd"><defs><style type="text/css">
   
    .fil0 {fill:black}
   
  </style></defs><g><path class="fil0" d="M125 0c68,0 124,56 124,125 0,68 -56,124 -124,124 -69,0 -125,-56 -125,-124 0,-69 56,-125 125,-125zm48 164c0,37 -57,37 -57,0 0,-38 57,-38 57,0zm-59 -69l-72 0c0,-47 72,-48 72,0zm93 0l-72 0c0,-47 72,-48 72,0z"/></g><text x="0" y="264" fill="#000000" font-size="5px" font-weight="bold" font-family="'Helvetica Neue', Helvetica, Arial-Unicode, Arial, Sans-serif">Created by rayhan maulana rikzan</text><text x="0" y="269" fill="#000000" font-size="5px" font-weight="bold" font-family="'Helvetica Neue', Helvetica, Arial-Unicode, Arial, Sans-serif">from the Noun Project</text></svg>