<svg xmlns="http://www.w3.org/2000/svg" xmlns:xlink="http://www.w3.org/1999/xlink" version="1.1" x="0px" y="0px" viewBox="5 5 90 112.5" enable-background="new 5 5 90 90" xml:space="preserve"><g display="none"><rect x="-744" y="-138" display="inline" width="185" height="99"/><rect x="-552" y="-174" display="inline" width="100" height="30"/><text transform="matrix(1 0 0 1 -486 -157.5)" display="inline" fill="#000000" font-family="'Helvetica'" font-size="2.4">http://thenounproject.com</text><text transform="matrix(1 0 0 1 -544.834 -162.5)" display="inline" fill="#000000" font-family="'Helvetica-Bold'" font-size="6.1578">The Noun Project</text><text transform="matrix(1 0 0 1 -543.7139 -157.7002)" display="inline" fill="#000000" font-family="'Helvetica-Bold'" font-size="4">Icon Template</text><text transform="matrix(1 0 0 1 -730.5 -127.5)" display="inline" fill="#000000" font-family="'Helvetica-Bold'" font-size="6.1578">Reminders</text><line display="inline" fill="#000000" stroke="#FFFFFF" stroke-miterlimit="10" x1="-544" y1="-152.5" x2="-534" y2="-152.5"/><line display="inline" fill="#000000" stroke="#FFFFFF" stroke-miterlimit="10" x1="-731" y1="-121.5" x2="-714" y2="-121.5"/><g display="inline"><g><g><rect x="-722.802" y="-106.682" fill="#000000" width="8.721" height="8.642"/><path fill="#000000" d="M-716.455-95.688h4.747v-4.703h-4.747V-95.688z M-711.266-95.251h-5.63v-5.579h5.63V-95.251      L-711.266-95.251z M-718.221-93.938h8.279v-8.203h-8.279V-93.938L-718.221-93.938z M-709.5-93.5h-9.163v-9.079h9.163V-93.5      L-709.5-93.5z"/><polygon fill="#000000" points="-718.149,-93.867 -718.292,-94.009 -710.013,-102.213 -709.871,-102.071     "/></g></g></g><rect x="-731" y="-80" display="inline" fill="none" width="35" height="32.5"/><text transform="matrix(1 0 0 1 -731 -77.8428)" display="inline" fill="#000000" font-family="'Helvetica-Bold'" font-size="3">Strokes</text><text transform="matrix(1 0 0 1 -731 -72.8428)" display="inline" fill="#000000" font-family="'Helvetica'" font-size="2.4">Try to keep strokes at 4px</text><text transform="matrix(1 0 0 1 -731 -67.8428)" display="inline" fill="#000000" font-family="'Helvetica'" font-size="2.4">Minimum stroke weight is 2px</text><text transform="matrix(1 0 0 1 -731 -63.3428)" display="inline" fill="#000000" font-family="'Helvetica'" font-size="2.4">For thicker strokes use even </text><text transform="matrix(1 0 0 1 -731 -60.3428)" display="inline" fill="#000000" font-family="'Helvetica'" font-size="2.4">numbers: 6px, 8px etc.</text><text transform="matrix(1 0 0 1 -731 -55.8428)" display="inline" fill="#000000" font-family="'Helvetica-Bold'" font-size="2.4">Remember to expand strokes </text><text transform="matrix(1 0 0 1 -731 -52.8428)" display="inline" fill="#000000" font-family="'Helvetica-Bold'" font-size="2.4">before saving as an SVG </text><rect x="-688.5" y="-80" display="inline" fill="none" width="35" height="32.5"/><text transform="matrix(1 0 0 1 -688.5 -77.8428)" display="inline" fill="#000000" font-family="'Helvetica-Bold'" font-size="3">Size</text><text transform="matrix(1 0 0 1 -688.5 -72.8428)" display="inline" fill="#000000" font-family="'Helvetica'" font-size="2.4">Cannot be wider or taller than </text><text transform="matrix(1 0 0 1 -688.5 -69.3428)" display="inline" fill="#000000" font-family="'Helvetica'" font-size="2.4">100px (artboar size)</text><text transform="matrix(1 0 0 1 -688.5 -64.3428)" display="inline" fill="#000000" font-family="'Helvetica'" font-size="2.4">Scale your icon to fill as much of </text><text transform="matrix(1 0 0 1 -688.5 -61.3428)" display="inline" fill="#000000" font-family="'Helvetica'" font-size="2.4">the Safe Area as possible (within </text><text transform="matrix(1 0 0 1 -688.5 -58.3428)" display="inline" fill="#000000" font-family="'Helvetica'" font-size="2.4">the guides)</text><rect x="-646" y="-80" display="inline" fill="none" width="35" height="32.5"/><text transform="matrix(1 0 0 1 -646 -77.8428)" display="inline" fill="#000000" font-family="'Helvetica-Bold'" font-size="3">Ungroup</text><text transform="matrix(1 0 0 1 -646 -72.8428)" display="inline" fill="#000000" font-family="'Helvetica'" font-size="2.4">If your design has more than one </text><text transform="matrix(1 0 0 1 -646 -69.8428)" display="inline" fill="#000000" font-family="'Helvetica'" font-size="2.4">shape, make sure to ungroup.</text><rect x="-602" y="-80" display="inline" fill="none" width="35" height="32.5"/><text transform="matrix(1 0 0 1 -602 -77.8428)" display="inline" fill="#000000" font-family="'Helvetica-Bold'" font-size="3">Save as</text><text transform="matrix(1 0 0 1 -602 -72.8428)" display="inline" fill="#000000" font-family="'Helvetica'" font-size="2.4">Save as .SVG and make sure </text><text transform="matrix(1 0 0 1 -602 -69.8428)" display="inline" fill="#000000" font-family="'Helvetica'" font-size="2.4">“Use Artboards” is checked.</text><text transform="matrix(1.0074 0 0 1 -677.542 -107.4062)" display="inline" fill="#000000" font-family="'Helvetica'" font-size="2.5731">100px</text><text transform="matrix(1.0074 0 0 1 -593 -99)" display="inline" fill="#000000" font-family="'Helvetica-Bold'" font-size="5.1462">.SVG</text><rect x="-678.514" y="-103.185" display="inline" fill="#000000" width="10.261" height="10.185"/><rect x="-678.477" y="-106.234" display="inline" fill="#000000" width="0.522" height="2.337"/><rect x="-668.812" y="-106.234" display="inline" fill="#000000" width="0.523" height="2.337"/><rect x="-679" y="-105.663" display="inline" fill="#000000" width="11.233" height="0.572"/><g display="inline"><rect x="-635.805" y="-104.156" fill="#000000" width="10.305" height="10.156"/><rect x="-628.809" y="-109.293" fill="#000000" width="3.308" height="3.261"/></g><rect x="-730.5" y="-115.5" display="inline" fill="#000000" stroke="#FFFFFF" stroke-miterlimit="10" width="30" height="30"/><rect x="-688.5" y="-115.5" display="inline" fill="#000000" stroke="#FFFFFF" stroke-miterlimit="10" width="30" height="30"/><rect x="-645.5" y="-115.5" display="inline" fill="#000000" stroke="#FFFFFF" stroke-miterlimit="10" width="30" height="30"/><rect x="-601.5" y="-115.5" display="inline" fill="#000000" stroke="#FFFFFF" stroke-miterlimit="10" width="30" height="30"/></g><g><rect x="-507" y="-107" fill="#000000" width="9" height="25"/><g><rect x="-515" y="-99" fill="#000000" width="25" height="9"/></g></g><path fill="#000000" d="M-502.474-123.425c-15.698,0-28.425,12.726-28.425,28.425s12.727,28.425,28.425,28.425  c15.7,0,28.426-12.727,28.426-28.425C-474.048-110.699-486.773-123.425-502.474-123.425z M-502.474-74.05  c-11.569,0-20.948-9.379-20.948-20.95c0-11.57,9.379-20.949,20.948-20.949c11.571,0,20.949,9.379,20.949,20.949  C-481.524-83.429-490.902-74.05-502.474-74.05z"/><path fill="#000000" d="M-515.789-70.2c6.104,9.592,13.314,18.213,13.314,18.213s7.216-8.621,13.317-18.213H-515.789z"/><g><g><path fill="#000000" d="M-329-70.817c0,3.765-3.053,6.817-6.817,6.817h-56.365c-3.765,0-6.817-3.053-6.817-6.817v-29.365    c0-3.765,3.053-6.817,6.817-6.817h56.365c3.765,0,6.817,3.052,6.817,6.817V-70.817z M-332-100.097    c0-2.708-2.195-4.903-4.903-4.903h-56.193c-2.708,0-4.903,2.195-4.903,4.903v29.193c0,2.708,2.195,4.903,4.903,4.903h56.193    c2.708,0,4.903-2.195,4.903-4.903V-100.097z"/><path fill="#000000" d="M-328-70.787c0,4.301-3.487,7.787-7.788,7.787h-56.424c-4.301,0-7.788-3.486-7.788-7.787v-29.426    c0-4.301,3.487-7.787,7.788-7.787h56.424c4.301,0,7.788,3.486,7.788,7.787V-70.787z M-336.432-65h0.026    c3.225,0,5.405-2.563,5.405-5.787v-0.025C-331-67.574-333.192-65-336.432-65z M-392.609-106c-3.225,0-5.391,2.943-5.391,6.167    v29.046c0,3.224,2.166,5.787,5.391,5.787h0.026c-3.239,0-5.417-2.574-5.417-5.812v-28.994c0-3.238,2.178-6.193,5.417-6.193h56.151    c3.239,0,5.432,2.955,5.432,6.193v-0.027c0-3.223-2.181-6.167-5.405-6.167H-392.609z M-332-100.067    c0-2.172-1.762-3.933-3.935-3.933h-56.131c-2.173,0-3.935,1.761-3.935,3.933v29.133c0,2.173,1.762,3.934,3.935,3.934h56.131    c2.173,0,3.935-1.761,3.935-3.934V-100.067z"/></g></g><g><g><path fill="#000000" d="M-398-91v20.238c0,3.337,2.796,5.762,6.132,5.762h58.132c3.336,0,5.736-2.425,5.736-5.762V-91H-398z     M-358-72h-38v-3h38V-72z M-347.093-86.976l3.055,6.191l6.833,0.992l-4.944,4.819l1.167,6.805l-6.11-3.213l-6.112,3.213    l1.168-6.805l-4.944-4.819l6.833-0.992L-347.093-86.976z"/></g></g><g><g><path fill="#000000" d="M-386.936-98.657c-0.059-0.231-0.143-0.444-0.246-0.639c-0.105-0.194-0.241-0.362-0.405-0.505    c-0.164-0.142-0.356-0.251-0.578-0.331c-0.219-0.078-0.477-0.118-0.767-0.118c-0.428,0-0.796,0.086-1.106,0.258    c-0.311,0.173-0.562,0.403-0.758,0.69c-0.193,0.289-0.338,0.615-0.432,0.982c-0.095,0.367-0.14,0.74-0.14,1.123    c0,0.382,0.045,0.756,0.14,1.123c0.094,0.366,0.238,0.693,0.432,0.981c0.195,0.289,0.447,0.519,0.758,0.69    c0.311,0.172,0.679,0.259,1.106,0.259c0.312,0,0.589-0.055,0.829-0.164c0.239-0.108,0.445-0.258,0.617-0.449    c0.172-0.191,0.308-0.414,0.405-0.668c0.095-0.254,0.16-0.527,0.189-0.82h1.369c-0.029,0.479-0.133,0.917-0.309,1.314    c-0.176,0.396-0.413,0.739-0.712,1.026c-0.3,0.289-0.651,0.51-1.055,0.667c-0.405,0.158-0.851,0.236-1.335,0.236    c-0.6,0-1.136-0.111-1.611-0.332s-0.877-0.522-1.207-0.903c-0.329-0.382-0.582-0.827-0.757-1.335    c-0.176-0.509-0.265-1.052-0.265-1.627c0-0.569,0.089-1.106,0.265-1.615c0.175-0.509,0.428-0.955,0.757-1.335    c0.33-0.383,0.731-0.685,1.207-0.91c0.476-0.224,1.012-0.336,1.611-0.336c0.447,0,0.87,0.061,1.267,0.185    c0.397,0.123,0.746,0.303,1.049,0.539c0.304,0.235,0.549,0.522,0.735,0.858c0.187,0.336,0.303,0.722,0.35,1.155L-386.936-98.657    L-386.936-98.657z"/></g><g><path fill="#000000" d="M-382.099-101.203h1.491l3.087,8.012h-1.505l-0.751-2.121h-3.197l-0.753,2.121h-1.447L-382.099-101.203z     M-382.592-96.379h2.444l-1.201-3.443h-0.032L-382.592-96.379z"/></g><g><path fill="#000000" d="M-376.758-101.203h3.826c0.883,0,1.545,0.19,1.986,0.572c0.441,0.382,0.663,0.914,0.663,1.594    c0,0.381-0.058,0.698-0.169,0.948c-0.111,0.251-0.244,0.452-0.393,0.606c-0.149,0.154-0.297,0.265-0.443,0.332    s-0.253,0.111-0.319,0.135v0.021c0.119,0.016,0.247,0.053,0.388,0.113c0.138,0.06,0.267,0.155,0.386,0.286    c0.12,0.131,0.219,0.301,0.299,0.511c0.078,0.209,0.117,0.471,0.117,0.785c0,0.471,0.035,0.899,0.106,1.285    c0.07,0.385,0.181,0.661,0.331,0.825h-1.504c-0.105-0.172-0.167-0.364-0.185-0.573c-0.02-0.209-0.028-0.411-0.028-0.606    c0-0.367-0.022-0.683-0.066-0.948c-0.046-0.266-0.128-0.486-0.249-0.662c-0.119-0.176-0.282-0.305-0.487-0.387    s-0.47-0.124-0.791-0.124h-2.065v3.3h-1.402L-376.758-101.203L-376.758-101.203z M-375.355-97.556h2.302    c0.448,0,0.788-0.107,1.021-0.321c0.232-0.213,0.349-0.532,0.349-0.959c0-0.254-0.038-0.462-0.113-0.622    c-0.074-0.162-0.177-0.287-0.309-0.377c-0.131-0.09-0.28-0.149-0.448-0.179s-0.343-0.045-0.522-0.045h-2.278v2.503H-375.355z"/></g><g><path fill="#000000" d="M-368.857-101.203h3.321c0.613,0,1.145,0.104,1.594,0.314c0.448,0.209,0.815,0.496,1.099,0.858    c0.286,0.363,0.497,0.788,0.635,1.275c0.14,0.485,0.209,1.006,0.209,1.559c0,0.554-0.069,1.074-0.209,1.56    c-0.138,0.486-0.349,0.91-0.635,1.273c-0.283,0.364-0.65,0.649-1.099,0.858s-0.98,0.315-1.594,0.315h-3.321V-101.203z     M-367.455-94.335h1.381c0.546,0,0.992-0.074,1.34-0.219c0.35-0.146,0.621-0.348,0.821-0.605c0.196-0.259,0.331-0.562,0.402-0.91    c0.071-0.348,0.106-0.724,0.106-1.127s-0.035-0.78-0.106-1.127c-0.071-0.348-0.206-0.651-0.402-0.909    c-0.2-0.258-0.472-0.46-0.821-0.606c-0.348-0.146-0.794-0.218-1.34-0.218h-1.381V-94.335z"/></g></g><path fill="#000000" d="M-223.51-120.335c-0.909-0.62-2.408-0.638-3.332-0.041l-30.568,19.767c-0.924,0.597-1.221,1.86-0.66,2.807  l0.051,0.085c0.561,0.946,1.02,2.621,1.02,3.721V-56c0,1.1,0.9,2,2,2h18c1.1,0,2-0.9,2-2v-22c0-1.1,0.9-2,2-2h13c1.1,0,2,0.9,2,2v22  c0,1.1,0.9,2,2,2h19c1.1,0,2-0.9,2-2v-37.324c0-1.1,0.389-2.812,0.864-3.804l0.283-0.592c0.476-0.992,0.121-2.311-0.788-2.931  L-223.51-120.335z"/><path fill="#000000" d="M-65-101.574l2.519-8.426l8.481,9.613C-57.675-100.104-65-101.574-65-101.574z"/><rect x="-117.418" y="-83.742" fill="#000000" width="4.46" height="6.022"/><g><g><path fill="#000000" d="M50-53c-19.3,0-35-15.701-35-35s15.7-35,35-35c19.299,0,35,15.701,35,35S69.299-53,50-53z M50-116.396    c-15.658,0-28.396,12.738-28.396,28.396S34.342-59.604,50-59.604c15.657,0,28.396-12.738,28.396-28.396S65.657-116.396,50-116.396    z"/></g><g><g><path fill="#000000" d="M41.602-71.708c0.154-0.68,0.384-1.582,0.692-2.703l4.15-15.159c0.045-0.176,0.082-0.352,0.115-0.528     c0.033-0.175,0.05-0.34,0.05-0.494c0-0.9-0.285-1.46-0.855-1.681c-0.571-0.219-1.613-0.362-3.127-0.428v-1.78     c1.266-0.088,3.104-0.269,5.514-0.544c2.411-0.274,4.118-0.511,5.121-0.708l2.881-0.561l-5.24,19.214     c-0.438,1.647-0.733,2.79-0.888,3.428c-0.395,1.626-0.594,2.681-0.594,3.163c0,0.484,0.11,0.797,0.331,0.939     c0.219,0.144,0.461,0.215,0.726,0.215c0.683,0,1.53-0.582,2.542-1.747c1.016-1.164,1.905-2.384,2.678-3.658l1.482,0.956     c-2.199,3.229-3.885,5.404-5.052,6.525c-1.914,1.846-3.959,2.769-6.137,2.769c-1.232,0-2.338-0.378-3.316-1.138     c-0.979-0.757-1.468-1.916-1.468-3.477C41.206-69.653,41.338-70.521,41.602-71.708z M57.475-110.037     c0.879,0.879,1.319,1.945,1.319,3.197s-0.44,2.324-1.319,3.213c-0.879,0.89-1.941,1.335-3.197,1.335     c-1.252,0-2.32-0.445-3.213-1.335c-0.89-0.89-1.333-1.961-1.333-3.213s0.445-2.317,1.333-3.197     c0.893-0.878,1.961-1.318,3.213-1.318S56.596-110.916,57.475-110.037z"/></g></g></g><g><path fill="#000000" d="M-495.63,31.562c0.071-2.527,0.354-5.067,0.856-7.408c0.077-0.362,0.168-0.168,0.256-1.154h-38.063   c-4.52,0-4.419,3.774-4.419,7.991v5.728c0,4.218-0.1,7.281,4.419,7.281h38.258C-495.291,40-495.744,35.621-495.63,31.562z"/><path fill="#000000" d="M-518.552,54h-15.203c-3.839,0-3.245,2.518-3.245,6.076v4.832c0,3.559-0.594,6.092,3.245,6.092h15.357   C-519.088,64.2-519.006,58.533-518.552,54z"/><path fill="#000000" d="M-467,36.719v-5.728c0-4.217-1.416-7.991-6.558-7.991h-18.718c-0.141,0.986-0.271,0.949-0.392,1.438   c-1.452,5.96-1.22,12.562,0.599,19.562h18.512C-468.416,44-467,40.937-467,36.719z M-473.808,33.774c0-4.755,1.443-8.61,2.441-8.61   c0.027,0,0.055,0.014,0.082,0.02c-0.697,1.433-0.562,5.269-0.55,8.591c0.015,3.852-0.147,7.157,0.55,8.59   c-0.027,0.007-0.055,0.021-0.082,0.021C-472.364,42.385-473.808,38.529-473.808,33.774z"/><path fill="#000000" d="M-467.352,74.902L-468,62.812v-0.64l0.648-12.092h-3.688c0,0-38.085,3.147-43.814,3.147   c0,0-1.444-0.246-2.136,1.229l0.99,7.901V63l-0.99,7.523c0.692,1.476,2.136,1.229,2.136,1.229c5.729,0,43.814,3.148,43.814,3.148   h3.688L-467.352,74.902L-467.352,74.902z M-471.711,72.589V52.094c0-0.344,0.436-0.621,0.972-0.621   c0.537,0,0.974,0.277,0.974,0.621v20.495c0,0.345-0.437,0.623-0.974,0.623C-471.275,73.212-471.711,72.934-471.711,72.589z"/></g><path fill="#000000" d="M-340.926,35.111l2.658-8.62l8.613,9.937C-333.427,36.685-340.926,35.111-340.926,35.111z"/><g><path fill="#000000" d="M-214.824,42.064c-1.24,0.595-1.771,2.091-1.172,3.332c0.599,1.244,2.084,1.771,3.332,1.175   c1.24-0.595,1.771-2.088,1.168-3.332C-212.087,41.999-213.576,41.469-214.824,42.064z"/><rect x="-234.262" y="41.345" transform="matrix(0.4318 0.902 -0.902 0.4318 -83.4181 234.5125)" fill="#000000" width="12.842" height="19.406"/><path fill="#000000" d="M-200.414,38.793c-3.332-6.304-9.953-10.605-17.58-10.605c-4.28,0-8.24,1.353-11.482,3.653   c-2.463-2.269-5.751-3.653-9.365-3.653c-6.516,0-11.979,4.508-13.447,10.573c-5.506,0.897-9.711,5.68-9.711,11.442   c0,6.404,5.193,11.594,11.598,11.594c0.812,0,1.598-0.083,2.361-0.242C-246.342,68.691-239.934,74-232.278,74   c5.139,0,9.715-2.395,12.687-6.127c0.526,0.04,1.061,0.068,1.598,0.068c5.503,0,10.483-2.239,14.082-5.854   c0.465,0.06,0.934,0.087,1.414,0.087c6.509,0,11.784-5.275,11.784-11.785C-190.714,44.596-194.9,39.781-200.414,38.793z    M-210.58,55.064l-25.859,12.375l-9.549-19.948l25.863-12.376l9.975,4.32l2.924,6.112L-210.58,55.064z"/></g><g><path fill="#000000" d="M-53.763,43.88c0.775-0.781,0.52-1.554-0.568-1.717l-20.795-3.124c-1.088-0.163-2.365-1.109-2.839-2.102   l-9.35-19.579c-0.474-0.992-1.249-0.992-1.723,0l-9.347,19.579c-0.474,0.992-1.751,1.938-2.839,2.102l-20.798,3.124   c-1.088,0.163-1.344,0.936-0.568,1.717l15.094,15.212c0.775,0.781,1.262,2.309,1.082,3.393l-3.576,21.543   c-0.18,1.086,0.464,1.543,1.43,1.021l18.627-10.125c0.966-0.522,2.548-0.522,3.514,0l18.627,10.125   c0.966,0.522,1.609,0.065,1.43-1.021l-3.576-21.543c-0.18-1.084,0.307-2.608,1.082-3.393L-53.763,43.88z M-75,54c0,1.1-0.9,2-2,2   h-6c-1.1,0-2,0.9-2,2v6c0,1.1-0.9,2-2,2h-3c-1.1,0-2-0.9-2-2v-6c0-1.1-0.9-2-2-2h-5c-1.1,0-2-0.9-2-2v-2c0-1.1,0.9-2,2-2h5   c1.1,0,2-0.9,2-2v-6c0-1.1,0.9-2,2-2h3c1.1,0,2,0.9,2,2v6c0,1.1,0.9,2,2,2h6c1.1,0,2,0.9,2,2V54z"/></g><path fill="#000000" d="M-344.121,37.907L-340.609,25h-55.952c-1.891,0-3.438,1.6-3.438,3.554v45.492C-400,76-398.452,78-396.562,78  h65.318c1.893,0,3.243-2,3.243-3.954V39.622C-334,40.026-344.121,37.907-344.121,37.907z M-357,32h10v3h-10V32z M-357,38h8v3h-8V38z   M-392,32h31v18h-31V32z M-377,71h-15v-3h15V71z M-377,65h-15v-3h15V65z M-377,59h-15v-3h15V59z M-355,71h-18v-3h18V71z M-352,47h-5  v-3h5V47z M-336,65h-37v-3h37V65z M-336,59h-37v-3h37V59z"/><g><rect x="-82" y="-105" fill="#000000" width="6" height="6"/><path fill="#000000" d="M-68.181-99.136L-65-112h-55.178c-1.864,0-3.822,1.849-3.822,3.776v44.861c0,1.928,1.958,3.362,3.822,3.362   h64.414C-53.897-60-52-61.435-52-63.362v-33.947C-58-96.91-68.181-99.136-68.181-99.136z M-93-107h6v5h-6V-107z M-83-90v6h-6v-6   H-83z M-98-101h5v5h4v6h-6v-6h-3v3h-5v-5h5V-101z M-89-85v5h-5v-5H-89z M-95-89v5h-4v-5H-95z M-104-107h6v6h-6V-107z M-117-107h10   v10h-10V-107z M-107-64h-10v-10h10V-64z M-83-74h10v10h-10l0,0h-12v-5h-4v5h-5v-15h-4v-5h-5v-5h-4v-4h14v4h-5v5h5v5h4v6h4v-6h6v6h6    M-73-98.232V-84h-5v5h5v-5h-5v5h-5v-5h4v-5h-4v-5h4v-2h-6v-11h12V-98.232z"/><rect x="-115" y="-72" fill="#000000" width="6" height="6"/><rect x="-95" y="-73" fill="#000000" width="6" height="4"/><rect x="-115" y="-105" fill="#000000" width="6" height="5"/></g><rect x="-81" y="-72" fill="#000000" width="6" height="6"/><path fill="#000000" d="M-24.5,72.133l-2.537,1.367c0,0-5.073-24.004-8.586-27.516c-3.514-3.513-4.808-13.612-4.808-13.612  l6.368-6.097L-24.5,72.133z"/><g><g><path d="M74.483,185.072l-4.421-38.977c-0.181-1.592-0.619-3.156-1.283-4.522l-10.547-21.075c0.629-0.165,1.067-0.785,0.991-1.451    c-0.057-0.505-0.413-0.911-0.856-1.089c0.411-0.266,0.648-0.739,0.59-1.253c-0.085-0.75-0.746-1.281-1.49-1.197l-6.634,0.75    c-0.744,0.084-1.27,0.75-1.184,1.498c0.057,0.496,0.376,0.908,0.819,1.093c-0.372,0.289-0.611,0.744-0.553,1.249    c0.076,0.667,0.64,1.173,1.29,1.193l-5.579,22.898c-0.321,1.478-0.399,3.101-0.219,4.693l4.421,38.978    c0.166,1.463,1.477,2.518,2.936,2.353l19.366-2.19C73.604,187.856,74.648,186.535,74.483,185.072z M26.821,144.922    c0.253,0.236,0.574,0.413,0.935,0.474c0.994,0.166,1.939-0.508,2.107-1.511c0.04-0.234,0.024-0.486-0.031-0.714l-0.879-5.022    c-0.267-1.22-1.263-2.228-2.562-2.445c-1.749-0.293-3.41,0.91-3.705,2.667c-0.134,0.8,0.032,1.555,0.406,2.2L26.821,144.922z     M24.29,138.638c0.146-0.872,0.96-1.443,1.826-1.298c0.591,0.099,1.075,0.533,1.24,1.086l0.658,2.72    c0.038,0.16,0.069,0.326,0.041,0.494c-0.089,0.531-0.595,0.896-1.13,0.806c-0.239-0.04-0.454-0.172-0.596-0.349l-1.784-2.317    C24.321,139.464,24.219,139.057,24.29,138.638z M43.202,148.698l-21.135-3.539c-0.526-0.088-1.013,0.279-1.101,0.8l-0.249,1.487    c-0.089,0.53,0.252,1.027,0.779,1.115l0.89,0.11c-1.181,0.491-2.131,1.527-2.36,2.893l-5.481,32.52    c-0.279,1.663,0.827,3.235,2.486,3.513l17.084,2.861c1.641,0.275,3.194-0.852,3.473-2.516l5.463-32.522    c0.23-1.366-0.35-2.658-1.296-3.506l0.877,0.186c0.516,0.086,1.022-0.269,1.111-0.799l0.25-1.487    C44.078,149.293,43.718,148.784,43.202,148.698z"/></g></g><g><g><path d="M263.522,75.78l-17.915,5.016l23.289-15.053l1.792,6.133l20.134-9.934l1.007-5.033l-48.315,3.02L241.5,91.394h5.348    c0.917-2.381,3.352-4.089,6.221-4.089c2.868,0,5.302,1.708,6.219,4.089h2.997c0.917-2.381,3.351-4.089,6.218-4.089    c2.868,0,5.303,1.708,6.22,4.089h13.835l1.258-17.83l-25.1,8.901L263.522,75.78z M253.028,89.155c-3.653,0-5.74,2.761-5.74,6.169    c0,3.411,2.087,6.175,5.74,6.175c3.654,0,6.339-2.764,6.339-6.175C259.366,91.917,256.682,89.155,253.028,89.155z M253.327,96.838    c-0.834,0-1.51-0.676-1.51-1.51s0.676-1.51,1.51-1.51s1.51,0.676,1.51,1.51S254.161,96.838,253.327,96.838z M268.378,89.155    c-3.653,0-5.74,2.761-5.74,6.169c0,3.411,2.087,6.175,5.74,6.175c3.654,0,6.339-2.764,6.339-6.175    C274.717,91.917,272.032,89.155,268.378,89.155z M268.677,96.838c-0.834,0-1.51-0.676-1.51-1.51s0.676-1.51,1.51-1.51    s1.51,0.676,1.51,1.51S269.511,96.838,268.677,96.838z M299.581,89.155c-3.653,0-5.74,2.761-5.74,6.169    c0,3.411,2.087,6.175,5.74,6.175c3.654,0,6.339-2.764,6.339-6.175C305.92,91.917,303.236,89.155,299.581,89.155z M299.881,96.838    c-0.834,0-1.51-0.676-1.51-1.51s0.676-1.51,1.51-1.51s1.51,0.676,1.51,1.51S300.714,96.838,299.881,96.838z M310.5,79.809    l-3.078-1.78l0.001,0.038l-8.549,0.372l0.39-6.431l7.594-0.52l0.068-0.487l-14.092-8.806l-2.013,28.938l3.554,0.261    c0.972-2.103,3.212-3.577,5.822-3.577s4.85,1.473,5.822,3.577h2.381l-0.003-0.045h1.607L310.5,79.809z"/></g></g><g><g><path d="M201.177,42.115h-1.523l0.07-4.861v-4.075c0.056-0.261-0.046-1.234-0.046-1.876c0.015-1.342-0.433-3.454-2.412-5.112    c-1.967-1.651-5.224-2.782-10.601-2.782h-0.054l-0.079,0.008c-0.074,0.01-2.743,0.272-5.545,1.517    c-2.753,1.203-5.912,3.662-5.912,7.941l-0.178,9.239h-1.512c-2.108,0-3.823,1.709-3.823,3.811v24.746    c0,2.101,1.715,3.811,3.823,3.811h27.791c2.108,0,3.823-1.71,3.823-3.811V45.927C205,43.824,203.285,42.115,201.177,42.115z     M187.106,67.356c-1.974,0-3.58-1.6-3.58-3.574c0-1.972,1.605-3.567,3.58-3.567c1.979,0,3.581,1.595,3.581,3.567    C190.687,65.756,189.084,67.356,187.106,67.356z M197.071,32.903v5.788l-0.034,3.424h-19.552l0.178-9.209    c0-2.882,1.992-4.512,4.385-5.625c1.173-0.524,2.382-0.858,3.283-1.047c0.733-0.163,1.239-0.231,1.406-0.248    c4.99,0.007,7.578,1.074,8.859,2.169c1.284,1.092,1.486,2.28,1.499,3.148C197.095,31.87,197.046,32.9,197.071,32.903z     M182.785,32.176c-0.316,0-0.634,0.029-0.946,0.087l-2.202,0.407c-0.005,0.079-0.013,0.159-0.013,0.237l-0.125,6.519h8.962    l-0.559-3.008C187.446,33.96,185.294,32.176,182.785,32.176z M166.866,45.927c0-3.198,2.328-5.865,5.383-6.403l0.104-5.372    l-33.098,6.118c-2.82,0.521-4.69,3.233-4.167,6.045l4.992,26.853c0.457,2.458,2.609,4.242,5.117,4.242    c0.316,0,0.634-0.029,0.946-0.087l21.335-3.943c-0.383-0.827-0.611-1.738-0.611-2.707v-6.373l-25.776,4.787l-1.043-5.577    l-1.09-5.862l27.909-5.18V45.927z M142.727,54.228l-1.639-8.823l13.109-2.424l1.639,8.825L142.727,54.228z M144.232,47.559    l0.657,3.534l7.805-1.442l-0.657-3.535L144.232,47.559z"/></g></g><g><g><path d="M43.063,18.567c0-1.75,0.437-3.834,0.437-5.073c0-0.12-0.603-0.145-1.333-0.131H35.5    c-0.728-0.014-1.332,0.012-1.332,0.131c0,1.239,0.202,3.324,0.202,5.073H43.063z M48.04,42.098c0-6.282-5.01-6.337-5.01-7.853    c0-3.123,0-8.927,0-13.954h-9.018c0,5.026,0,10.83,0,13.954c0,1.516-6.012,1.571-6.012,7.853c0,9.96,0,39.842,0,39.842    c0,1.997,0.826,4.701,1.847,4.701h17.404c1.02,0,0.789-2.704,0.789-4.701C48.04,81.94,48.04,52.059,48.04,42.098z M71.884,83.08    l-0.076,0.015c-0.049,0.008-6.317,1.029-7.479-1.572c-0.185-0.414-2.277-8.843-1.938-11.945c0.32-2.93,4.696-3.891,5.546-10.249    c0.912-6.822-4.351-14.97-4.351-14.97l-5.665,1.082l-1.164,0.223l-1.165,0.223l-5.665,1.082c0,0-1.901,9.558,1.445,15.564    c3.119,5.6,7.55,4.92,8.92,7.526c1.45,2.759,2.579,11.291,2.559,11.745c-0.128,2.853-6.355,4.215-6.382,4.221    c-0.008,0.002-0.016,0.003-0.025,0.005l0.023-0.005l-0.001,0l0.006-0.001l8.481-1.621l-8.215,1.57l0.116,0.608L72,83.688    L71.884,83.08z"/></g></g><text x="5" y="110" fill="#000000" font-size="5px" font-weight="bold" font-family="'Helvetica Neue', Helvetica, Arial-Unicode, Arial, Sans-serif">Created by David Cadusseau</text><text x="5" y="115" fill="#000000" font-size="5px" font-weight="bold" font-family="'Helvetica Neue', Helvetica, Arial-Unicode, Arial, Sans-serif">from the Noun Project</text></svg>